<svg xmlns:svg="http://www.w3.org/2000/svg" xmlns="http://www.w3.org/2000/svg" width="875.1384752132354" height="431.88936471282466" version="1.1">
    <g transform="translate(0,-2)">
        <path fill="none" stroke="White" stroke-opacity="1" stroke-width="1" d="M 770.1384752132354 421.88936471282466 L 855.1384752132354 421.88936471282466 A 10,3.75 0 0 0 865.1384752132354 418.13936471282466 L 865.1384752132354 410.63936471282466 A 10,3.75 0 0 0 855.1384752132354 406.88936471282466 L 770.1384752132354 406.88936471282466 A 10,3.75 0 0 0 760.1384752132354 410.63936471282466 L 760.1384752132354 418.13936471282466 A 10,3.75 0 0 0 770.1384752132354 421.88936471282466"/>
        <text x="782.3384752132355" y="419.33936471282465" font-family="Arial" font-size="16" fill="White">
            <tspan x="782.3384752132355" dy="0">kspacey</tspan>
        </text>
        <path fill="none" stroke="White" stroke-opacity="1" stroke-width="1" d="M 564.0452342442892 348.73324515296525 L 679.0452342442892 348.73324515296525 A 10,3.75 0 0 0 689.0452342442892 344.98324515296525 L 689.0452342442892 337.48324515296525 A 10,3.75 0 0 0 679.0452342442892 333.73324515296525 L 564.0452342442892 333.73324515296525 A 10,3.75 0 0 0 554.0452342442892 337.48324515296525 L 554.0452342442892 344.98324515296525 A 10,3.75 0 0 0 564.0452342442892 348.73324515296525"/>
        <text x="582.2452342442892" y="346.18324515296524" font-family="Arial" font-size="16" fill="White">
            <tspan x="582.2452342442892" dy="0">swilliams</tspan>
        </text>
        <path fill="none" stroke="White" d="M 793.0475057100705 406.88936471282466 L 645.8057202762338 350.52087357840844"/>
        <polygon stroke="White" fill="none" points="646.2020279569434 349.485666686855 641.1362037474541 348.73324515296525 645.4094125955243 351.5560804699619"/>
        <path fill="none" stroke="White" stroke-opacity="1" stroke-width="1" d="M 404.77063732761917 27 L 459.77063732761917 27 A 10,3.75 0 0 0 469.77063732761917 23.25 L 469.77063732761917 15.75 A 10,3.75 0 0 0 459.77063732761917 12 L 404.77063732761917 12 A 10,3.75 0 0 0 394.77063732761917 15.75 L 394.77063732761917 23.25 A 10,3.75 0 0 0 404.77063732761917 27"/>
        <text x="410.97063732761916" y="24.45" font-family="Arial" font-size="16" fill="White">
            <tspan x="410.97063732761916" dy="0">bpitt</tspan>
        </text>
        <path fill="none" stroke="White" stroke-opacity="1" stroke-width="1" d="M 20 418.16468539036924 L 75 418.16468539036924 A 10,3.75 0 0 0 85 414.41468539036924 L 85 406.91468539036924 A 10,3.75 0 0 0 75 403.16468539036924 L 20 403.16468539036924 A 10,3.75 0 0 0 10 406.91468539036924 L 10 414.41468539036924 A 10,3.75 0 0 0 19.999999999999996 418.16468539036924"/>
        <text x="26.2" y="415.61468539036923" font-family="Arial" font-size="16" fill="White">
            <tspan x="26.2" dy="0">hford</tspan>
        </text>
        <path fill="none" stroke="White" stroke-opacity="1" stroke-width="1" d="M 196.41383252327984 345.98346293218356 L 281.41383252327984 345.98346293218356 A 10,3.75 0 0 0 291.41383252327984 342.23346293218356 L 291.41383252327984 334.73346293218356 A 10,3.75 0 0 0 281.41383252327984 330.98346293218356 L 196.41383252327984 330.98346293218356 A 10,3.75 0 0 0 186.41383252327984 334.73346293218356 L 186.41383252327984 342.23346293218356 A 10,3.75 0 0 0 196.41383252327984 345.98346293218356"/>
        <text x="208.61383252327983" y="343.43346293218355" font-family="Arial" font-size="16" fill="White">
            <tspan x="208.61383252327983" dy="0">lwilson</tspan>
        </text>
        <path fill="none" stroke="White" d="M 67.38888100026621 403.16468539036924 L 214.34653604784927 347.7476705848545"/>
        <polygon stroke="White" fill="none" points="214.73765146824024 348.7848503253246 219.0249515230136 345.98346293218356 213.9554206274583 346.7104908443844"/>
        <path fill="none" stroke="White" stroke-opacity="1" stroke-width="1" d="M 395.9097664033919 246.6714023842704 L 465.9097664033919 246.6714023842704 A 10,3.75 0 0 0 475.9097664033919 242.9214023842704 L 475.9097664033919 235.4214023842704 A 10,3.75 0 0 0 465.9097664033919 231.6714023842704 L 395.9097664033919 231.6714023842704 A 10,3.75 0 0 0 385.9097664033919 235.4214023842704 L 385.9097664033919 242.9214023842704 A 10,3.75 0 0 0 395.9097664033919 246.6714023842704"/>
        <text x="405.1097664033919" y="244.1214023842704" font-family="Arial" font-size="16" fill="White">
            <tspan x="405.1097664033919" dy="0">kbacon</tspan>
        </text>
        <path fill="none" stroke="White" d="M 607.5364140033394 333.73324515296525 L 449.32660523334926 249.0313541038961"/>
        <polygon stroke="White" fill="none" points="449.8497939336853 248.05411990988227 444.91858664434176 246.6714023842704 448.8034165330132 250.0085882979099"/>
        <path fill="none" stroke="White" d="M 432.224174602745 27 L 430.98720368381106 226.67149832750005"/>
        <polygon stroke="White" fill="none" points="429.8787516406983 226.664631433858 430.9562291282661 231.6714023842704 432.09565572692384 226.6783652211421"/>
        <path fill="none" stroke="White" d="M 253.41327494906787 330.98346293218356 L 411.9692718088263 248.9685866681703"/>
        <polygon stroke="White" fill="none" points="412.47854530367414 249.95314423050715 416.41032397760387 246.6714023842704 411.4599983139785 247.98402910583346"/>
    </g>
</svg>
