<svg xmlns:svg="http://www.w3.org/2000/svg" xmlns="http://www.w3.org/2000/svg" width="357" height="127" version="1.1">
    <g transform="translate(0,-4)">
        <path fill="none" stroke="White" stroke-opacity="1" stroke-width="1" d="M 237 29 L 322 29 A 10,3.75 0 0 0 332 25.25 L 332 17.75 A 10,3.75 0 0 0 322 14 L 237 14 A 10,3.75 0 0 0 227 17.75 L 227 25.25 A 10,3.75 0 0 0 237 29"/>
        <text x="249.2" y="26.45" font-family="Arial" font-size="16" fill="White">
            <tspan x="249.2" dy="0">kspacey</tspan>
        </text>
        <path fill="none" stroke="White" stroke-opacity="1" stroke-width="1" d="M 222 74 L 337 74 A 10,3.75 0 0 0 347 70.25 L 347 62.75 A 10,3.75 0 0 0 337 59 L 222 59 A 10,3.75 0 0 0 212 62.75 L 212 70.25 A 10,3.75 0 0 0 222 74"/>
        <text x="240.2" y="71.45" font-family="Arial" font-size="16" fill="White">
            <tspan x="240.2" dy="0">swilliams</tspan>
        </text>
        <path fill="none" stroke="White" d="M 279.5 29 L 279.5 54"/>
        <polygon stroke="White" fill="none" points="278.3915266867853 54 279.5 59 280.6084733132147 54"/>
        <path fill="none" stroke="White" stroke-opacity="1" stroke-width="1" d="M 136 74 L 191 74 A 10,3.75 0 0 0 201 70.25 L 201 62.75 A 10,3.75 0 0 0 191 59 L 136 59 A 10,3.75 0 0 0 126 62.75 L 126 70.25 A 10,3.75 0 0 0 136 74"/>
        <text x="142.2" y="71.45" font-family="Arial" font-size="16" fill="White">
            <tspan x="142.2" dy="0">bpitt</tspan>
        </text>
        <path fill="none" stroke="White" stroke-opacity="1" stroke-width="1" d="M 35 29 L 90 29 A 10,3.75 0 0 0 100 25.25 L 100 17.75 A 10,3.75 0 0 0 90 14 L 35 14 A 10,3.75 0 0 0 25 17.75 L 25 25.25 A 10,3.75 0 0 0 35 29"/>
        <text x="41.2" y="26.45" font-family="Arial" font-size="16" fill="White">
            <tspan x="41.2" dy="0">hford</tspan>
        </text>
        <path fill="none" stroke="White" stroke-opacity="1" stroke-width="1" d="M 20 74 L 105 74 A 10,3.75 0 0 0 115 70.25 L 115 62.75 A 10,3.75 0 0 0 105 59 L 20 59 A 10,3.75 0 0 0 10 62.75 L 10 70.25 A 10,3.75 0 0 0 19.999999999999996 74"/>
        <text x="32.2" y="71.45" font-family="Arial" font-size="16" fill="White">
            <tspan x="32.2" dy="0">lwilson</tspan>
        </text>
        <path fill="none" stroke="White" d="M 62.5 29 L 62.5 54"/>
        <polygon stroke="White" fill="none" points="61.3915266867853 54 62.5 59 63.6084733132147 54"/>
        <path fill="none" stroke="White" stroke-opacity="1" stroke-width="1" d="M 128.5 119 L 198.5 119 A 10,3.75 0 0 0 208.5 115.25 L 208.5 107.75 A 10,3.75 0 0 0 198.5 104 L 128.5 104 A 10,3.75 0 0 0 118.5 107.75 L 118.5 115.25 A 10,3.75 0 0 0 128.5 119"/>
        <text x="137.7" y="116.45" font-family="Arial" font-size="16" fill="White">
            <tspan x="137.7" dy="0">kbacon</tspan>
        </text>
        <path fill="none" stroke="White" d="M 260.16666666666663 74 L 187.49486338386274 102.19164782522569"/>
        <polygon stroke="White" fill="none" points="187.09396135853652 101.15821149327364 182.83333333333331 104 187.89576540918895 103.22508415717773"/>
        <path fill="none" stroke="White" d="M 163.5 74 L 163.5 99"/>
        <polygon stroke="White" fill="none" points="162.3915266867853 99 163.5 104 164.6084733132147 99"/>
        <path fill="none" stroke="White" d="M 79.33333333333333 74 L 142.09947558040236 101.96511288235752"/>
        <polygon stroke="White" fill="none" points="141.64835196734015 102.97763476945273 146.66666666666669 104 142.55059919346456 100.9525909952623"/>
    </g>
</svg>
