<svg xmlns="http://www.w3.org/2000/svg" data-name="Layer 1" width="691.92701" height="626.3022" viewBox="0 0 691.92701 626.3022" xmlns:xlink="http://www.w3.org/1999/xlink"><path d="M738.49913,254.675a9.09694,9.09694,0,0,0,10.05778,7.73515,8.72772,8.72772,0,0,0,1.40961-.3073l18.96022,25.45,16.29882-5.0772-29.74242-32.05526a9.0717,9.0717,0,0,0-9.50174-5.69,8.68158,8.68158,0,0,0-7.51563,9.70852Q738.48083,254.55717,738.49913,254.675Z" transform="translate(-254.03649 -136.8489)" fill="#a0616a"/><path d="M872.38313,368.34158s-70.79724-33.041-88.70591-54.145l-32.09057-39.84468,16.27516-13.31426,30.164,34.7438c-.275,7.30032,35.37754,14.78486,54.54385,25.42606Z" transform="translate(-254.03649 -136.8489)" fill="#e6e6e6"/><polygon points="635.752 610.051 621.866 610.05 615.26 556.486 635.755 556.487 635.752 610.051" fill="#a0616a"/><path d="M890.27817,761.386l-42.70332-.00161v-.54005a16.62222,16.62222,0,0,1,16.62132-16.62106h.001l7.8003-5.91772,14.55366,5.91862,3.72772.00013Z" transform="translate(-254.03649 -136.8489)" fill="#2f2e41"/><polygon points="602.646 597.799 589.123 600.953 570.519 550.292 590.478 545.636 602.646 597.799" fill="#a0616a"/><path d="M860.45118,748.64433l-41.58665,9.70177-.12271-.52593a16.62222,16.62222,0,0,1,12.40979-19.96309l.001-.00024,6.2516-7.53536L852.922,732.7783l3.63023-.84691Z" transform="translate(-254.03649 -136.8489)" fill="#2f2e41"/><path d="M721.14363,434.12129H334.61245a31.92473,31.92473,0,0,1-7.237-.91724,32.30942,32.30942,0,0,1-24.76137-31.51167V270.31058A32.45041,32.45041,0,0,1,335.043,237.91112H721.14363a32.00925,32.00925,0,0,1,14.94377,3.65776,31.05772,31.05772,0,0,1,5.18229,3.38146,32.07082,32.07082,0,0,1,12.30284,25.36024v131.3818A32.46476,32.46476,0,0,1,721.14363,434.12129Z" transform="translate(-254.03649 -136.8489)" fill="#f2f2f2"/><path d="M695.23517,431.24894q26.32506-63.98151,55.465-126.69921v70.88952c-13.47131,20.10642-28.40751,38.97774-45.72776,55.80969Z" transform="translate(-254.03649 -136.8489)" fill="#6c63ff"/><path d="M739.46939,247.18892q-52.09012,93.45182-109.00559,184.06h-6.60636Q681.72083,339.219,734.7587,244.11549A28.23273,28.23273,0,0,1,739.46939,247.18892Z" transform="translate(-254.03649 -136.8489)" fill="#6c63ff"/><path d="M484.6347,315.20607a1171.09567,1171.09567,0,0,1-74.99692,116.04287H370.25784q38.69069-47.13522,77.43853-94.27043c7.4107-9.048,15.45324-18.52667,26.5692-22.20319Z" transform="translate(-254.03649 -136.8489)" fill="#6c63ff"/><path d="M432.30063,308.772c-4.10761,4.27977-8.04271,8.73187-11.748,13.35648-8.15754,9.82338-16.20008,19.733-24.27137,29.61389-5.0266,6.14669-10.05321,12.29355-15.02231,18.44042a36.68253,36.68253,0,0,1-4.48086-3.38935,40.19154,40.19154,0,0,1,51.35757-61.813A37.04566,37.04566,0,0,1,432.30063,308.772Z" transform="translate(-254.03649 -136.8489)" fill="#fff"/><path d="M654.41907,336.69117,578.93389,309.088,541.4498,295.387c-12.20747-4.45227-24.38637-9.53621-36.99583-12.75322a58.32446,58.32446,0,0,0-33.49166.43074,77.00124,77.00124,0,0,0-26.10954,16.20008q-4.998,4.61014-9.67979,9.50746c-4.10761,4.27977-8.04271,8.73187-11.748,13.35648-8.15754,9.82338-16.20007,19.733-24.27136,29.61389-5.02661,6.14669-10.05321,12.29355-15.02232,18.44042Q359.228,400.6441,334.6121,431.24894a28.78647,28.78647,0,0,1-6.549-.83309q25.67887-31.88289,51.58741-63.62237c1.98193-2.47018,4.02118-4.96928,6.03186-7.43946q12.62392-15.46743,25.27661-30.90647c6.52029-7.95629,12.98307-15.97024,20.0491-23.467.63183-.68933,1.26384-1.34992,1.92442-2.03943,14.333-14.82123,32.22782-27.91912,53.65542-28.26379,12.60964-.20108,24.78836,3.79152,36.50759,8.01378,12.60964,4.56711,25.19053,9.2203,37.8,13.84474l76.00236,27.80429,19.01492,6.95121C659.27334,332.49765,657.83717,337.955,654.41907,336.69117Z" transform="translate(-254.03649 -136.8489)" fill="#6c63ff"/><path d="M256.03649,285.01621V206.141a9.29554,9.29554,0,0,1,9.29-9.27978h102.21v-2h-102.21a11.29753,11.29753,0,0,0-11.29,11.27978v78.87525Z" transform="translate(-254.03649 -136.8489)" fill="#3f3d56"/><path d="M263.13122,474.90952a9.25725,9.25725,0,0,1-7.09473-9.02832v-78.865h-2v78.865a11.24844,11.24844,0,0,0,8.62061,10.9707,11.11481,11.11481,0,0,0,2.51953.31934H367.53649v-2H265.18884A9.13335,9.13335,0,0,1,263.13122,474.90952Z" transform="translate(-254.03649 -136.8489)" fill="#3f3d56"/><path d="M721.03649,387.01621v78.865a9.30086,9.30086,0,0,1-9.29,9.29h-102.21v2h102.21a11.30252,11.30252,0,0,0,11.29-11.29v-78.865Z" transform="translate(-254.03649 -136.8489)" fill="#3f3d56"/><path d="M719.02771,197.90952a8.8598,8.8598,0,0,1,1.481.96777,9.18461,9.18461,0,0,1,3.52783,7.26367v78.87525h2V206.141a11.16537,11.16537,0,0,0-4.2832-8.8291,10.81314,10.81314,0,0,0-1.8042-1.17725,11.144,11.144,0,0,0-5.20263-1.27343h-102.21v2h102.21A9.16859,9.16859,0,0,1,719.02771,197.90952Z" transform="translate(-254.03649 -136.8489)" fill="#3f3d56"/><path d="M901.82164,486.821l-86.40181,4.33071-6,29v25.83059l-3.68247,96.17728,25.68247,74.99213h20.59055l-2.09055-9.5v0a9.9134,9.9134,0,0,0,.34076-11.02335l-1.65178-2.64073-2.689-11.33591-6-42,25.69685-94.66941,3.30315,172.66941h22.36878l3.28087-3.74715a12.56945,12.56945,0,0,0,.99209-15.26658l0,0v-4.187l-2.64173-14.79921,24.6527-183.70863Z" transform="translate(-254.03649 -136.8489)" fill="#2f2e41"/><path d="M864.4892,306.7949l-28.18455,1.4434-3.20191,13.35848-20.46752,15.664a31.24781,31.24781,0,0,0-11.67011,30.84172L812.31035,425.819l-.73782,36.12405,1.63712,14.79254-.12375,2.23946-2.50627,2.05133a9.70076,9.70076,0,0,0-2.5272,11.85562l0,0s-12.35083,26.70277,5.52009,28.061,28.92474-17.22441,46-10,32.319,8.0709,37,0,18.9221-6.18976,20.6347-13.24057-6.9581-15.03189-8.12275-25.54134-4.16465-59.50946-4.16465-59.50946l8.38982-48.1071a31.86754,31.86754,0,0,0-17.44409-34.12721l-26.86088-13.07747Z" transform="translate(-254.03649 -136.8489)" fill="#e6e6e6"/><path d="M717.70434,457.41566a10.35022,10.35022,0,0,1,13.48451-5.15508,9.92949,9.92949,0,0,1,1.43652.79428l28.96126-21.56569L777.7,442.33457l-42.86733,25.253a10.32151,10.32151,0,0,1-12.212,3.10684,9.87764,9.87764,0,0,1-5.02958-13.03225Q717.646,457.53815,717.70434,457.41566Z" transform="translate(-254.03649 -136.8489)" fill="#a0616a"/><path d="M807.68879,343.6834s-37.54186,68.35894-52.07994,88.46459l-11.03632,8.61988,1,28.17519L770.234,455.33429s49.76536-37.6959,48.33851-53.39123S807.68879,343.6834,807.68879,343.6834Z" transform="translate(-254.03649 -136.8489)" fill="#e6e6e6"/><circle cx="593.96877" cy="141.05742" r="26.63173" fill="#a0616a"/><path d="M858.29571,302.35513c-7.64231-.25074-8.33653-2.26936-15.97883-2.5201-2.43339-.07984-5.30489-.41335-6.48134-2.545-.8379-1.51819-.45234-3.43.28508-4.99943a45.65624,45.65624,0,0,0,2.35431-4.63127,8.08891,8.08891,0,0,0-8.01463-10.66433c-2.32567.1005-4.50985,1.19417-6.82909,1.394-3.18068.27414-10.214-10.22767-8.7496-13.06447,1.42547-2.76135,4.29416-4.8447,4.745-7.91939.2949-2.011-.53521-4.00912-.64864-6.03845-.16818-3.00894,7.45914,3.77557,6.06228,1.10521-3.42656-6.55054,28.86321-14.67148,34.17918-6.46633,1.98679,3.06661,5.52756,2.85744,8.68348,4.69913,2.06842,1.20706,7.29141,5.37134,8.4788,7.96688a20.20808,20.20808,0,0,1,1.51246,8.36142c.04777,13.31425-1.98065,25.56131-12.72,33.43136" transform="translate(-254.03649 -136.8489)" fill="#2f2e41"/><path d="M725.52515,755.25331A48.67528,48.67528,0,0,1,686.26591,740.608c-6.59053-6.94854-11.11322-15.89233-15.48708-24.54163-1.2732-2.51692-2.58928-5.1197-3.9282-7.61425a15.53411,15.53411,0,0,1,1.61174-17.33177,15.27246,15.27246,0,0,1,16.303-5.20879l.63822.18437,5.74416,22.41411c.85694-3.34324,2.69631-10.87592,3.85784-18.25612l.09758-.61814.572.25475a78.13219,78.13219,0,0,1,16.78623,10.11535A80.52868,80.52868,0,0,1,742.57359,760.649l.0152.697Z" transform="translate(-254.03649 -136.8489)" fill="#f2f2f2"/><path d="M944.77282,762.84377l-278.75.30733a1.19069,1.19069,0,0,1,0-2.38137l278.75-.30733a1.19069,1.19069,0,1,1,0,2.38137Z" transform="translate(-254.03649 -136.8489)" fill="#cacaca"/><path d="M413.48909,559.42971a26.16382,26.16382,0,1,1,26.16383-26.16381A26.16383,26.16383,0,0,1,413.48909,559.42971Z" transform="translate(-254.03649 -136.8489)" fill="#e6e6e6"/><path d="M423.81264,530.685H416.07v-7.74272a2.58094,2.58094,0,0,0-5.16187,0V530.685h-7.74272a2.5809,2.5809,0,0,0,0,5.16179h7.74272v7.74271a2.58094,2.58094,0,0,0,5.16187,0v-7.74271h7.74261a2.5809,2.5809,0,1,0,0-5.16179Z" transform="translate(-254.03649 -136.8489)" fill="#fff"/><path d="M490.03649,559.42971a26.16382,26.16382,0,1,1,26.16383-26.16381A26.16383,26.16383,0,0,1,490.03649,559.42971Z" transform="translate(-254.03649 -136.8489)" fill="#e6e6e6"/><path d="M500.36,530.685H479.71283a2.5809,2.5809,0,0,0,0,5.16179H500.36a2.58089,2.58089,0,1,0,0-5.16179Z" transform="translate(-254.03649 -136.8489)" fill="#fff"/><path d="M566.58389,559.42971a26.16382,26.16382,0,1,1,26.16383-26.16381A26.16383,26.16383,0,0,1,566.58389,559.42971Z" transform="translate(-254.03649 -136.8489)" fill="#e6e6e6"/><path d="M581.30315,532.023l-7.41733-10.82634a2.19976,2.19976,0,0,0-3.6294,2.48662l4.797,7.00173H556.26026a2.5809,2.5809,0,1,0,0,5.1618h19.02923l-5.03307,7.34623a2.19976,2.19976,0,0,0,3.6294,2.48662l7.41733-10.82634a2.90262,2.90262,0,0,0,0-2.83032Z" transform="translate(-254.03649 -136.8489)" fill="#fff"/><circle cx="236" cy="27.78" r="27.78" fill="#6c63ff"/><path d="M486.24673,179.08709a3.08928,3.08928,0,0,1-2.47187-1.2363l-7.57881-10.10525a3.09008,3.09008,0,1,1,4.94424-3.70793l4.95831,6.61059,12.7348-19.10194a3.0902,3.0902,0,1,1,5.1424,3.42827L488.81818,177.711a3.09148,3.09148,0,0,1-2.48544,1.37513C486.30407,179.08659,486.2754,179.08709,486.24673,179.08709Z" transform="translate(-254.03649 -136.8489)" fill="#fff"/></svg>